<svg width="19" height="19" viewBox="0 0 19 19" fill="none" xmlns="http://www.w3.org/2000/svg">
<path d="M10.2131 9.67239L3.62263 10.7714C3.54686 10.784 3.47575 10.8164 3.41646 10.8652C3.35717 10.9141 3.31179 10.9777 3.28488 11.0496L1.0125 17.137C0.795501 17.697 1.38088 18.2308 1.91813 17.9621L17.6681 10.0871C17.7772 10.0327 17.869 9.94888 17.9331 9.84517C17.9972 9.74147 18.0312 9.62195 18.0312 9.50001C18.0312 9.37808 17.9972 9.25856 17.9331 9.15485C17.869 9.05115 17.7772 8.96736 17.6681 8.91289L1.91813 1.03789C1.38088 0.769262 0.795501 1.30389 1.0125 1.86301L3.28575 7.95039C3.31254 8.0225 3.35787 8.08627 3.41717 8.13528C3.47646 8.18428 3.54763 8.21679 3.6235 8.22951L10.214 9.32764C10.2546 9.33474 10.2913 9.35592 10.3178 9.38745C10.3443 9.41898 10.3588 9.45884 10.3588 9.50001C10.3588 9.54119 10.3443 9.58105 10.3178 9.61257C10.2913 9.6441 10.2546 9.66528 10.214 9.67239H10.2131Z" fill="#FDFDFD"/>
</svg>
